<mxfile host="app.diagrams.net" modified="2022-08-29T21:12:45.389Z" agent="5.0 (Windows NT 10.0; Win64; x64) AppleWebKit/537.36 (KHTML, like Gecko) Chrome/104.0.5112.102 Safari/537.36" etag="xdB3gJPi3jEKXhJ68Bix" version="20.2.7" type="github">
  <diagram name="Page-1" id="42789a77-a242-8287-6e28-9cd8cfd52e62">
    <mxGraphModel dx="1778" dy="988" grid="1" gridSize="10" guides="1" tooltips="1" connect="1" arrows="1" fold="1" page="1" pageScale="1" pageWidth="1100" pageHeight="850" background="none" math="0" shadow="1">
      <root>
        <mxCell id="0" />
        <mxCell id="1" parent="0" />
        <mxCell id="E-nFSBNpMr0eOmuZc7jh-2" value="Steel" style="rounded=0;whiteSpace=wrap;html=1;" vertex="1" parent="1">
          <mxGeometry x="490" y="180" width="120" height="60" as="geometry" />
        </mxCell>
        <mxCell id="E-nFSBNpMr0eOmuZc7jh-4" value="Iron" style="rounded=0;whiteSpace=wrap;html=1;" vertex="1" parent="1">
          <mxGeometry x="400" y="505" width="120" height="60" as="geometry" />
        </mxCell>
        <mxCell id="E-nFSBNpMr0eOmuZc7jh-5" value="Carbon" style="rounded=0;whiteSpace=wrap;html=1;" vertex="1" parent="1">
          <mxGeometry x="600" y="505" width="120" height="60" as="geometry" />
        </mxCell>
        <mxCell id="E-nFSBNpMr0eOmuZc7jh-11" value="" style="endArrow=classic;startArrow=classic;html=1;rounded=0;entryX=0;entryY=0.5;entryDx=0;entryDy=0;exitX=1;exitY=0.5;exitDx=0;exitDy=0;" edge="1" parent="1" source="E-nFSBNpMr0eOmuZc7jh-21" target="E-nFSBNpMr0eOmuZc7jh-20">
          <mxGeometry width="50" height="50" relative="1" as="geometry">
            <mxPoint x="631" y="701" as="sourcePoint" />
            <mxPoint x="671" y="701" as="targetPoint" />
          </mxGeometry>
        </mxCell>
        <mxCell id="E-nFSBNpMr0eOmuZc7jh-12" value="" style="endArrow=classic;html=1;rounded=0;entryX=0.5;entryY=1;entryDx=0;entryDy=0;" edge="1" parent="1" target="E-nFSBNpMr0eOmuZc7jh-5">
          <mxGeometry width="50" height="50" relative="1" as="geometry">
            <mxPoint x="660" y="630" as="sourcePoint" />
            <mxPoint x="560" y="541" as="targetPoint" />
          </mxGeometry>
        </mxCell>
        <mxCell id="E-nFSBNpMr0eOmuZc7jh-18" value="" style="endArrow=classic;startArrow=classic;html=1;rounded=0;entryX=0;entryY=0.5;entryDx=0;entryDy=0;exitX=1;exitY=0.5;exitDx=0;exitDy=0;" edge="1" parent="1" source="E-nFSBNpMr0eOmuZc7jh-4" target="E-nFSBNpMr0eOmuZc7jh-5">
          <mxGeometry width="50" height="50" relative="1" as="geometry">
            <mxPoint x="641" y="711" as="sourcePoint" />
            <mxPoint x="681" y="711" as="targetPoint" />
          </mxGeometry>
        </mxCell>
        <mxCell id="E-nFSBNpMr0eOmuZc7jh-20" value="Hammer" style="rounded=0;whiteSpace=wrap;html=1;" vertex="1" parent="1">
          <mxGeometry x="681" y="595" width="120" height="60" as="geometry" />
        </mxCell>
        <mxCell id="E-nFSBNpMr0eOmuZc7jh-21" value="Coal" style="rounded=0;whiteSpace=wrap;html=1;" vertex="1" parent="1">
          <mxGeometry x="521" y="595" width="120" height="60" as="geometry" />
        </mxCell>
        <mxCell id="E-nFSBNpMr0eOmuZc7jh-24" style="edgeStyle=orthogonalEdgeStyle;rounded=0;orthogonalLoop=1;jettySize=auto;html=1;exitX=0.5;exitY=0;exitDx=0;exitDy=0;entryX=0.5;entryY=1;entryDx=0;entryDy=0;" edge="1" parent="1" source="E-nFSBNpMr0eOmuZc7jh-22" target="E-nFSBNpMr0eOmuZc7jh-2">
          <mxGeometry relative="1" as="geometry" />
        </mxCell>
        <mxCell id="E-nFSBNpMr0eOmuZc7jh-35" style="edgeStyle=orthogonalEdgeStyle;rounded=0;orthogonalLoop=1;jettySize=auto;html=1;exitX=1;exitY=0.5;exitDx=0;exitDy=0;" edge="1" parent="1" source="E-nFSBNpMr0eOmuZc7jh-22">
          <mxGeometry relative="1" as="geometry">
            <mxPoint x="710" y="394.5" as="targetPoint" />
          </mxGeometry>
        </mxCell>
        <mxCell id="E-nFSBNpMr0eOmuZc7jh-22" value="Clay Alloy Furnace" style="rounded=0;whiteSpace=wrap;html=1;" vertex="1" parent="1">
          <mxGeometry x="490" y="365" width="120" height="60" as="geometry" />
        </mxCell>
        <mxCell id="E-nFSBNpMr0eOmuZc7jh-23" value="" style="endArrow=classic;html=1;rounded=0;entryX=0.5;entryY=1;entryDx=0;entryDy=0;" edge="1" parent="1" target="E-nFSBNpMr0eOmuZc7jh-22">
          <mxGeometry width="50" height="50" relative="1" as="geometry">
            <mxPoint x="550" y="540" as="sourcePoint" />
            <mxPoint x="570" y="461" as="targetPoint" />
          </mxGeometry>
        </mxCell>
        <mxCell id="E-nFSBNpMr0eOmuZc7jh-29" value="Copper" style="rounded=0;whiteSpace=wrap;html=1;" vertex="1" parent="1">
          <mxGeometry x="280" y="435" width="120" height="60" as="geometry" />
        </mxCell>
        <mxCell id="E-nFSBNpMr0eOmuZc7jh-30" value="Tin" style="rounded=0;whiteSpace=wrap;html=1;" vertex="1" parent="1">
          <mxGeometry x="280" y="300" width="120" height="60" as="geometry" />
        </mxCell>
        <mxCell id="E-nFSBNpMr0eOmuZc7jh-31" value="" style="endArrow=classic;startArrow=classic;html=1;rounded=0;entryX=0.5;entryY=0;entryDx=0;entryDy=0;exitX=0.5;exitY=1;exitDx=0;exitDy=0;" edge="1" parent="1" source="E-nFSBNpMr0eOmuZc7jh-30" target="E-nFSBNpMr0eOmuZc7jh-29">
          <mxGeometry width="50" height="50" relative="1" as="geometry">
            <mxPoint x="520" y="621" as="sourcePoint" />
            <mxPoint x="600" y="621" as="targetPoint" />
          </mxGeometry>
        </mxCell>
        <mxCell id="E-nFSBNpMr0eOmuZc7jh-34" value="Bronze" style="rounded=0;whiteSpace=wrap;html=1;" vertex="1" parent="1">
          <mxGeometry x="690" y="365" width="120" height="60" as="geometry" />
        </mxCell>
        <mxCell id="E-nFSBNpMr0eOmuZc7jh-38" style="edgeStyle=orthogonalEdgeStyle;rounded=0;orthogonalLoop=1;jettySize=auto;html=1;exitX=0.5;exitY=0;exitDx=0;exitDy=0;entryX=0.5;entryY=1;entryDx=0;entryDy=0;" edge="1" parent="1" source="E-nFSBNpMr0eOmuZc7jh-36" target="E-nFSBNpMr0eOmuZc7jh-37">
          <mxGeometry relative="1" as="geometry" />
        </mxCell>
        <mxCell id="E-nFSBNpMr0eOmuZc7jh-36" value="Tree Tap" style="rounded=0;whiteSpace=wrap;html=1;" vertex="1" parent="1">
          <mxGeometry x="890" y="671" width="120" height="60" as="geometry" />
        </mxCell>
        <mxCell id="E-nFSBNpMr0eOmuZc7jh-40" style="edgeStyle=orthogonalEdgeStyle;rounded=0;orthogonalLoop=1;jettySize=auto;html=1;exitX=0.5;exitY=0;exitDx=0;exitDy=0;entryX=0.5;entryY=1;entryDx=0;entryDy=0;" edge="1" parent="1" source="E-nFSBNpMr0eOmuZc7jh-37" target="E-nFSBNpMr0eOmuZc7jh-39">
          <mxGeometry relative="1" as="geometry" />
        </mxCell>
        <mxCell id="E-nFSBNpMr0eOmuZc7jh-37" value="Latex" style="rounded=0;whiteSpace=wrap;html=1;" vertex="1" parent="1">
          <mxGeometry x="890" y="550" width="120" height="60" as="geometry" />
        </mxCell>
        <mxCell id="E-nFSBNpMr0eOmuZc7jh-39" value="Rubber" style="rounded=0;whiteSpace=wrap;html=1;" vertex="1" parent="1">
          <mxGeometry x="890" y="430" width="120" height="60" as="geometry" />
        </mxCell>
        <mxCell id="E-nFSBNpMr0eOmuZc7jh-41" value="" style="endArrow=classic;html=1;rounded=0;" edge="1" parent="1">
          <mxGeometry width="50" height="50" relative="1" as="geometry">
            <mxPoint x="340" y="394" as="sourcePoint" />
            <mxPoint x="490" y="394.38" as="targetPoint" />
          </mxGeometry>
        </mxCell>
      </root>
    </mxGraphModel>
  </diagram>
</mxfile>
